<svg xmlns="http://www.w3.org/2000/svg" viewBox="0 0 128 128" width="128" height="128">
  <defs>
    <linearGradient id="grad1" x1="0%" y1="0%" x2="100%" y2="100%">
      <stop offset="0%" style="stop-color:#2a8fa8;stop-opacity:1" />
      <stop offset="100%" style="stop-color:#1e6b82;stop-opacity:1" />
    </linearGradient>
  </defs>

  <!-- Background circle -->
  <circle cx="64" cy="64" r="64" fill="#ffffff"/>

  <!-- S -->
  <path d="M 35 55 Q 35 48 42 45 Q 48 43 55 45 L 55 53 Q 50 52 45 54 Q 40 56 40 60 Q 40 63 45 65 L 55 70 Q 60 72 60 78 Q 60 85 52 88 Q 45 90 38 88 L 38 80 Q 44 82 52 81 Q 57 80 57 77 Q 57 74 52 72 L 42 67 Q 35 65 35 58 Z" fill="url(#grad1)"/>

  <!-- A -->
  <path d="M 70 90 L 75 45 L 85 45 L 93 90 L 87 90 L 85 80 L 72 80 L 70 90 Z M 79 52 L 74 75 L 83 75 L 78 52 Z" fill="#6b7280"/>

  <!-- I -->
  <rect x="100" y="45" width="5" height="45" fill="url(#grad1)"/>

  <!-- Accent line -->
  <line x1="30" y1="95" x2="110" y2="95" stroke="#2a8fa8" stroke-width="2" stroke-linecap="round"/>
</svg>